<svg xmlns="http://www.w3.org/2000/svg" viewBox="0 0 96 96" role="img" aria-labelledby="title desc">
  <title id="title">SASE logo mark</title>
  <desc id="desc">Stylized SASE club logo mark in blue, green, white, and gold.</desc>
  <defs>
    <linearGradient id="bg" x1="0%" y1="0%" x2="100%" y2="100%">
      <stop offset="0%" stop-color="#0d4d8c"/>
      <stop offset="100%" stop-color="#1d7b5d"/>
    </linearGradient>
    <linearGradient id="ring" x1="0%" y1="0%" x2="100%" y2="100%">
      <stop offset="0%" stop-color="#f0cf63"/>
      <stop offset="100%" stop-color="#d6b04c"/>
    </linearGradient>
  </defs>
  <rect x="6" y="6" width="84" height="84" rx="28" fill="url(#bg)"/>
  <circle cx="48" cy="48" r="30" fill="none" stroke="url(#ring)" stroke-width="4"/>
  <path d="M38 33c-4 0-7 2-7 5 0 4 3 5 9 6 8 2 13 4 13 11 0 7-6 12-15 12-6 0-12-2-16-6l4-6c4 3 8 5 12 5 4 0 7-2 7-5 0-4-3-5-9-7-8-2-12-4-12-11s6-11 14-11c6 0 10 2 14 5l-4 6c-4-3-7-4-10-4z" fill="#ffffff"/>
  <text x="48" y="79" text-anchor="middle" font-family="Segoe UI, Arial, sans-serif" font-size="11" font-weight="700" fill="#ffffff" letter-spacing="1.2">SASE</text>
</svg>
